<?xml version="1.0" encoding="UTF-8"?>
<svg version="1.1" xmlns="http://www.w3.org/2000/svg" width="285" height="277">
<path d="M0 0 C94.05 0 188.1 0 285 0 C285 91.41 285 182.82 285 277 C190.95 277 96.9 277 0 277 C0 185.59 0 94.18 0 0 Z " fill="#FEFEFE" transform="translate(0,0)"/>
<path d="M0 0 C0.7060437 0.00021149 1.4120874 0.00042297 2.13952637 0.00064087 C18.35084879 0.04905 32.86221659 2.24379868 47.5625 9.375 C48.54347656 9.81585938 49.52445313 10.25671875 50.53515625 10.7109375 C76.108823 22.65631474 96.48621466 46.0241414 106.18237305 72.36401367 C110.3222253 84.16725524 112.22712185 95.14746957 112.08398438 107.60180664 C112.06253182 109.80922588 112.08393318 112.01338094 112.109375 114.22070312 C112.13901426 128.24940251 109.51821699 141.68052692 103.5 154.4375 C102.92463501 155.68164673 102.92463501 155.68164673 102.33764648 156.95092773 C92.98886667 176.47695495 79.21282517 191.10482267 61.5625 203.375 C60.69882813 203.9834375 59.83515625 204.591875 58.9453125 205.21875 C46.87384758 213.07146766 32.65558197 217.16231805 18.5625 219.375 C17.19738281 219.64763672 17.19738281 219.64763672 15.8046875 219.92578125 C-12.86004417 223.8974007 -39.7342875 215.97815882 -63.0625 199.5234375 C-65.24360168 197.86489143 -67.34600122 196.14472974 -69.4375 194.375 C-70.1490625 193.8078125 -70.860625 193.240625 -71.59375 192.65625 C-92.31905807 175.4338109 -105.2653153 147.92417952 -108.25878906 121.43579102 C-110.9412816 90.50284083 -101.63873809 61.70116441 -81.74951172 37.90234375 C-61.04736641 13.8024887 -31.72523963 -0.08750321 0 0 Z " fill="#FCFCFC" transform="translate(155.4375,41.625)"/>
<path d="M0 0 C0.7060437 0.00021149 1.4120874 0.00042297 2.13952637 0.00064087 C18.35084879 0.04905 32.86221659 2.24379868 47.5625 9.375 C48.54347656 9.81585938 49.52445313 10.25671875 50.53515625 10.7109375 C76.108823 22.65631474 96.48621466 46.0241414 106.18237305 72.36401367 C110.3222253 84.16725524 112.22712185 95.14746957 112.08398438 107.60180664 C112.06253182 109.80922588 112.08393318 112.01338094 112.109375 114.22070312 C112.13901426 128.24940251 109.51821699 141.68052692 103.5 154.4375 C102.92463501 155.68164673 102.92463501 155.68164673 102.33764648 156.95092773 C92.98886667 176.47695495 79.21282517 191.10482267 61.5625 203.375 C60.69882813 203.9834375 59.83515625 204.591875 58.9453125 205.21875 C46.87384758 213.07146766 32.65558197 217.16231805 18.5625 219.375 C17.19738281 219.64763672 17.19738281 219.64763672 15.8046875 219.92578125 C-12.86004417 223.8974007 -39.7342875 215.97815882 -63.0625 199.5234375 C-65.24360168 197.86489143 -67.34600122 196.14472974 -69.4375 194.375 C-70.1490625 193.8078125 -70.860625 193.240625 -71.59375 192.65625 C-92.31905807 175.4338109 -105.2653153 147.92417952 -108.25878906 121.43579102 C-110.9412816 90.50284083 -101.63873809 61.70116441 -81.74951172 37.90234375 C-61.04736641 13.8024887 -31.72523963 -0.08750321 0 0 Z M-74.4375 47.375 C-91.64330656 68.47512492 -98.64932071 94.81910944 -96.125 121.703125 C-94.36606613 133.45029049 -90.87572674 144.81934079 -85.4375 155.375 C-84.95796875 156.31730469 -84.4784375 157.25960937 -83.984375 158.23046875 C-70.64595274 182.73820092 -48.30034682 197.93193562 -22.2578125 206.41015625 C2.72739113 212.97717188 29.66268186 207.64103758 52 195.5078125 C54.59986709 193.88289557 57.08974385 192.18609241 59.5625 190.375 C60.36558594 189.81425781 61.16867188 189.25351563 61.99609375 188.67578125 C64.87321893 186.64067408 64.87321893 186.64067408 67.5625 184.375 C67.5625 183.715 67.5625 183.055 67.5625 182.375 C68.14644531 182.12234375 68.73039063 181.8696875 69.33203125 181.609375 C84.69644474 173.10647717 93.50051134 148.58738246 98.2890625 133.01171875 C104.67364745 109.23628675 99.77932324 82.41013395 88.08959961 61.13842773 C84.5311758 55.0081836 80.3848155 49.57393097 75.5625 44.375 C74.79292969 43.52550781 74.02335938 42.67601563 73.23046875 41.80078125 C54.88752852 22.4503128 30.09070685 12.69051573 3.81640625 11.15625 C-27.08188418 10.38459654 -54.11955193 24.89259698 -74.4375 47.375 Z " fill="#090909" transform="translate(155.4375,41.625)"/>
<path d="M0 0 C8.848125 -0.0928125 8.848125 -0.0928125 17.875 -0.1875 C19.71562012 -0.21481201 21.55624023 -0.24212402 23.45263672 -0.27026367 C36.94265927 -0.38841723 47.37502722 1.17871786 57.71875 10.55859375 C65.78326166 19.13742376 67.67736673 28.28328417 67.52783203 39.7121582 C67.27539934 46.09604798 66.31917247 51.4452337 63 57 C62.0409375 58.6396875 62.0409375 58.6396875 61.0625 60.3125 C53.95707199 69.57108801 45.35884637 74.13891315 34 76 C31.34836945 76.08160753 28.72474527 76.11671195 26.07421875 76.09765625 C24.95283257 76.09553383 24.95283257 76.09553383 23.80879211 76.09336853 C21.43498635 76.08779764 19.06127697 76.0752506 16.6875 76.0625 C15.07226699 76.05748123 13.4570325 76.05291899 11.84179688 76.04882812 C7.89449445 76.03783775 3.94726353 76.02059332 0 76 C0 71.38 0 66.76 0 62 C0.97759277 61.9906543 1.95518555 61.98130859 2.96240234 61.97167969 C6.63439354 61.9314165 10.30557843 61.86556334 13.97705078 61.79248047 C15.55767355 61.76447921 17.13843091 61.74316236 18.71923828 61.72900391 C29.20219863 61.62954508 38.20080722 61.31854782 46.9375 54.8125 C52.15473521 47.69808836 53.0236238 39.63754467 52 31 C50.31448591 24.68646416 47.54146439 20.62326518 42 17 C32.29722776 12.89923762 32.29722776 12.89923762 14 13 C14 26.53 14 40.06 14 54 C9.38 54 4.76 54 0 54 C0 36.18 0 18.36 0 0 Z " fill="#060606" transform="translate(95,114)"/>
<path d="M0 0 C3.31119269 2.37340735 6.01124529 4.68656851 8.1875 8.1875 C8.1875 9.1775 8.1875 10.1675 8.1875 11.1875 C6.7778653 11.88930531 5.35942359 12.57343958 3.9375 13.25 C3.14859375 13.63285156 2.3596875 14.01570313 1.546875 14.41015625 C-1.14880412 15.29830218 -2.21301227 15.25286382 -4.8125 14.1875 C-5.91353371 13.35627405 -6.99577228 12.49981642 -8.0625 11.625 C-12.19544342 8.93741486 -16.18470105 8.6648184 -21 8.625 C-21.68932617 8.61073975 -22.37865234 8.59647949 -23.08886719 8.58178711 C-27.90840016 8.67572716 -30.47162963 9.73359266 -33.8125 13.1875 C-35.05927006 16.08456707 -35.05927006 16.08456707 -34.8125 19.1875 C-32.85397799 22.77812368 -31.49766073 23.95493018 -27.61328125 25.2734375 C-23.8869759 26.16958904 -20.30918955 26.66830721 -16.5 27.0625 C-6.91588903 28.29244514 1.66464658 30.64998049 8.1875 38.1875 C11.75135066 44.28053499 11.95060035 49.72859994 10.7890625 56.515625 C9.10802118 62.93414639 5.60856779 66.5135535 0.1875 70.1875 C-9.81368422 75.77337702 -24.90119308 75.96168633 -35.8828125 72.94921875 C-40.23520612 71.23116864 -44.28176404 69.12330537 -47.21484375 65.4140625 C-48.148468 61.93585451 -46.61521951 60.0245039 -44.9375 56.9375 C-44.36257812 55.85984375 -43.78765625 54.7821875 -43.1953125 53.671875 C-42.73898438 52.85203125 -42.28265625 52.0321875 -41.8125 51.1875 C-41.1525 51.1875 -40.4925 51.1875 -39.8125 51.1875 C-39.420625 51.93 -39.02875 52.6725 -38.625 53.4375 C-35.87686342 57.60708653 -32.187103 59.41735849 -27.5 60.9375 C-19.88532666 61.64584171 -13.77885803 61.60957061 -6.8125 58.1875 C-4.01144932 55.73658066 -3.84456424 54.4119497 -3.3125 50.6875 C-3.51791751 47.18233189 -3.51791751 47.18233189 -5.5625 44.9375 C-13.76529968 40.52060786 -23.76247501 39.54951079 -32.85546875 37.8359375 C-35.8125 37.1875 -35.8125 37.1875 -36.8125 36.1875 C-36.95365161 33.51691149 -36.85497107 30.86317762 -36.8125 28.1875 C-37.8025 27.8575 -38.7925 27.5275 -39.8125 27.1875 C-40.62109375 24.96484375 -40.62109375 24.96484375 -41.25 22.125 C-42.1672742 18.32768207 -43.21062579 15.15475951 -45.125 11.75 C-46.8125 8.1875 -46.8125 8.1875 -46.08203125 6.125 C-42.37764984 0.47154406 -37.05956506 -1.94090966 -30.8125 -3.8125 C-30.20019531 -3.99941406 -29.58789062 -4.18632813 -28.95703125 -4.37890625 C-19.1657808 -6.35855798 -8.46431043 -5.35384839 0 0 Z " fill="#090909" transform="translate(208.8125,116.8125)"/>
<path d="M0 0 C1.32 0 2.64 0 4 0 C4.495 1.98 4.495 1.98 5 4 C5.53625 3.814375 6.0725 3.62875 6.625 3.4375 C9.61990614 2.88580676 12.03745829 3.39402556 15 4 C15.33 2.68 15.66 1.36 16 0 C16.82948927 21.91765885 16.82948927 21.91765885 12 30 C11.0409375 31.6396875 11.0409375 31.6396875 10.0625 33.3125 C2.95707199 42.57108801 -5.64115363 47.13891315 -17 49 C-19.65163055 49.08160753 -22.27525473 49.11671195 -24.92578125 49.09765625 C-26.04716743 49.09553383 -26.04716743 49.09553383 -27.19120789 49.09336853 C-29.56501365 49.08779764 -31.93872303 49.0752506 -34.3125 49.0625 C-35.92773301 49.05748123 -37.5429675 49.05291899 -39.15820312 49.04882812 C-43.10550555 49.03783775 -47.05273647 49.02059332 -51 49 C-51 44.38 -51 39.76 -51 35 C-50.02240723 34.9906543 -49.04481445 34.98130859 -48.03759766 34.97167969 C-44.36560646 34.9314165 -40.69442157 34.86556334 -37.02294922 34.79248047 C-35.44232645 34.76447921 -33.86156909 34.74316236 -32.28076172 34.72900391 C-21.79780137 34.62954508 -12.79919278 34.31854782 -4.0625 27.8125 C1.2514703 20.56617686 1.65979326 12.76763736 1 4 C0.70610253 2.65742294 0.38830911 1.31837207 0 0 Z " fill="#090909" transform="translate(146,141)"/>
<path d="M0 0 C1.32 0 2.64 0 4 0 C4.33 1.32 4.66 2.64 5 4 C5.804375 3.7215625 5.804375 3.7215625 6.625 3.4375 C9.61990614 2.88580676 12.03745829 3.39402556 15 4 C15.33 2.68 15.66 1.36 16 0 C16 6.6 16 13.2 16 20 C15.67 18.68 15.34 17.36 15 16 C10.71 16 6.42 16 2 16 C1.77213542 13.00520833 1.54427083 10.01041667 1.31640625 7.015625 C1.05909227 4.56320038 0.68187782 2.36078709 0 0 Z " fill="#747474" transform="translate(146,141)"/>
<path d="M0 0 C0.33 0 0.66 0 1 0 C1 6.6 1 13.2 1 20 C0.67 18.68 0.34 17.36 0 16 C-3.3 16 -6.6 16 -10 16 C-10 15.67 -10 15.34 -10 15 C-8.02 15 -6.04 15 -4 15 C-4.33 11.37 -4.66 7.74 -5 4 C-3.35 4 -1.7 4 0 4 C0 2.68 0 1.36 0 0 Z " fill="#353535" transform="translate(161,141)"/>
<path d="M0 0 C1.32 0 2.64 0 4 0 C4.33 1.98 4.66 3.96 5 6 C5.99 6 6.98 6 8 6 C7.67 6.99 7.34 7.98 7 9 C6.34 9 5.68 9 5 9 C5 10.98 5 12.96 5 15 C4.01 15.33 3.02 15.66 2 16 C1.93941406 15.18015625 1.87882813 14.3603125 1.81640625 13.515625 C1.73261719 12.43796875 1.64882812 11.3603125 1.5625 10.25 C1.48128906 9.18265625 1.40007812 8.1153125 1.31640625 7.015625 C1.05909227 4.56320038 0.68187782 2.36078709 0 0 Z " fill="#5C5C5C" transform="translate(146,141)"/>
<path d="M0 0 C0.33 0 0.66 0 1 0 C1 1.65 1 3.3 1 5 C2.65 5 4.3 5 6 5 C6 7.64 6 10.28 6 13 C4.35 12.67 2.7 12.34 1 12 C-0.3271261 8.0186217 -0.06915913 4.14954773 0 0 Z " fill="#6D6D6D" transform="translate(255,142)"/>
<path d="M0 0 C2.475 0.495 2.475 0.495 5 1 C5 3.31 5 5.62 5 8 C3.35 8 1.7 8 0 8 C0 5.36 0 2.72 0 0 Z " fill="#606060" transform="translate(53,147)"/>
<path d="M0 0 C0.33 0 0.66 0 1 0 C1 1.98 1 3.96 1 6 C0.34 6 -0.32 6 -1 6 C-1 8.97 -1 11.94 -1 15 C-1.66 15 -2.32 15 -3 15 C-3 11.37 -3 7.74 -3 4 C-2.01 4 -1.02 4 0 4 C0 2.68 0 1.36 0 0 Z " fill="#7F7F7F" transform="translate(161,141)"/>
<path d="M0 0 C0.99 0 1.98 0 3 0 C3 2.97 3 5.94 3 9 C2.01 9 1.02 9 0 9 C0 6.03 0 3.06 0 0 Z " fill="#828282" transform="translate(173,145)"/>
<path d="M0 0 C0.33 0 0.66 0 1 0 C3 5.625 3 5.625 3 9 C2.34 9.99 1.68 10.98 1 12 C-0.3271261 8.0186217 -0.06915913 4.14954773 0 0 Z " fill="#5C5C5C" transform="translate(255,142)"/>
</svg>
